<svg width="754" height="754" viewBox="0 0 754 754" fill="none" xmlns="http://www.w3.org/2000/svg">
<rect width="754" height="754" rx="377" fill="white"/>
<path d="M395.158 553C268.408 553 192.658 469 192.658 369.25C192.658 271 263.908 187.75 371.908 187.75C471.658 187 540.658 259.75 540.658 346C540.658 388 524.158 419.5 500.908 454H443.908C470.158 417.25 488.158 387.25 488.158 350.5C488.158 288.25 441.658 235.75 371.908 235.75C294.658 235.75 244.408 297.25 244.408 368.5C244.408 440.5 295.408 505 399.658 505H529.408L511.408 553H395.158Z" fill="#070C17"/>
</svg>
